<?xml version="1.0" encoding="UTF-8"?>
<svg version="1.1" xmlns="http://www.w3.org/2000/svg" width="900" height="900">
<path d="M0 0 C3.63 0 7.26 0 11 0 C10.25 8.75 10.25 8.75 8 11 C7.29094062 12.98536627 6.63305821 14.98910922 6 17 C4.50652415 21.24791034 2.84840918 25.35994659 0.9375 29.4375 C-0.82722254 33.31045976 -1.82958191 37.07326335 -2.60546875 41.25 C-3 43 -3 43 -4 44 C-4.3698855 45.82630965 -4.69673464 47.66145374 -5 49.5 C-5.88888889 54.88888889 -5.88888889 54.88888889 -7 56 C-11.10704555 80.79144624 -11.10704555 80.79144624 -5 104 C-4.20453384 106.45719915 -3.54644336 108.93500597 -2.87890625 111.4296875 C0.23771409 120.54407053 8.01909633 128.79823665 15.4375 134.72265625 C17 136 17 136 19.75 138.8125 C21.88171271 141.20200031 21.88171271 141.20200031 25 142 C25.33 142.66 25.66 143.32 26 144 C27.64232772 144.72455635 29.31624835 145.37774395 31 146 C37.77142857 148.77142857 37.77142857 148.77142857 39 150 C41.22145633 150.28387779 43.44317648 150.44765173 45.67578125 150.62109375 C48 151 48 151 49.88435364 152.00711823 C52.18847953 153.08845424 53.64717216 153.25462924 56.17456055 153.26501465 C56.99886566 153.27328781 57.82317078 153.28156097 58.67245483 153.29008484 C59.56816193 153.28910294 60.46386902 153.28812103 61.38671875 153.28710938 C62.3367276 153.29394241 63.28673645 153.30077545 64.26553345 153.30781555 C66.32695145 153.32139843 68.3884031 153.330455 70.44985962 153.33552551 C73.7110775 153.34380989 76.97201475 153.36431016 80.2331543 153.38806152 C87.15539464 153.43629733 94.07766284 153.46923459 101 153.5 C109.0208922 153.53564779 117.04164694 153.57752415 125.06240845 153.63594055 C128.27754522 153.65603157 131.49257716 153.6643329 134.70776367 153.67224121 C136.67627343 153.68521191 138.64477968 153.69873197 140.61328125 153.71289062 C141.50898834 153.71190872 142.40469543 153.71092682 143.32754517 153.70991516 C144.15185028 153.71818832 144.9761554 153.72646149 145.82543945 153.73498535 C146.53924271 153.73791847 147.25304596 153.74085159 147.98847961 153.7438736 C150.33157736 154.04221966 151.92575017 154.89922738 154 156 C156.55643113 156.35539643 159.0846301 156.50133113 161.66015625 156.65625 C164 157 164 157 167 159 C168.175625 159.165 169.35125 159.33 170.5625 159.5 C174 160 174 160 176 162 C177.99054876 162.69437747 179.99255385 163.35610218 182 164 C186.43432814 165.82124191 190.73375066 167.8148479 195 170 C195 170.66 195 171.32 195 172 C196.11375 172.185625 196.11375 172.185625 197.25 172.375 C199.82930049 172.96120466 201.7482162 173.63284555 204 175 C204.33 175.66 204.66 176.32 205 177 C206.70822777 177.98551602 208.41840436 178.96805643 210.14453125 179.921875 C212.65999631 181.38349259 214.84927755 183.04479778 217 185 C217 185.66 217 186.32 217 187 C217.99 187 218.98 187 220 187 C221.71108689 188.62102968 223.37253306 190.29503463 225 192 C225.78375 192.598125 226.5675 193.19625 227.375 193.8125 C233.24981234 198.70817695 237.75444299 204.93467826 242.37890625 210.98046875 C244.06456136 213.16389715 244.06456136 213.16389715 246.5625 215.5 C249.95579426 218.98030181 252.40021301 222.90832555 255 227 C255.60457031 227.94101562 256.20914062 228.88203125 256.83203125 229.8515625 C258.56633337 232.56072497 260.29365013 235.27314548 262 238 C262.56332031 238.85078125 263.12664062 239.7015625 263.70703125 240.578125 C265 243 265 243 265 247 C265.66 247 266.32 247 267 247 C267.4125 247.969375 267.825 248.93875 268.25 249.9375 C269.13862785 252.02074547 270.04235291 254.09260498 270.984375 256.15234375 C273.92881901 262.59614621 276.20584298 269.12167029 278.125 275.9375 C278.86498305 278.88353988 278.86498305 278.88353988 280 281 C280.27169454 283.23393291 280.44477833 285.46760508 280.62109375 287.7109375 C280.86383003 289.99641539 280.86383003 289.99641539 282 291.7578125 C283.53883354 295.20816583 283.43375367 298.77946241 283.5625 302.5 C283.63257438 304.11985903 283.70419287 305.73965199 283.77734375 307.359375 C283.8119873 308.15021484 283.84663086 308.94105469 283.88232422 309.75585938 C284.08691168 313.65745257 284.49392884 317.5384774 284.9140625 321.421875 C285.01365482 324.40964456 284.51071831 327.05521997 284 330 C283.78671048 333.38893345 283.61158378 336.7731529 283.48242188 340.16601562 C283.27804897 344.22648103 282.57885144 347.28611082 281 351 C280.59372042 353.24117624 280.24137303 355.49265749 279.9375 357.75 C279.10376135 363.89623865 279.10376135 363.89623865 278 365 C277.62913819 366.99338221 277.30262289 368.99512332 277 371 C276.11111111 376.88888889 276.11111111 376.88888889 275 378 C274.71606022 380.51489516 274.5518876 383.02989582 274.37890625 385.5546875 C274 388 274 388 272 391 C271.61845057 393.14573931 271.61845057 393.14573931 271.5 395.4375 C271.32891073 397.96534399 271.15102265 399.70208423 270 401.97265625 C268.80536414 404.3945938 268.66377053 406.31416324 268.5 409 C268.22036908 413.58594717 268.22036908 413.58594717 267 415.87890625 C265.58305931 418.8843703 265.64107204 421.63288743 265.5 424.9375 C265.21954595 431.49311342 265.21954595 431.49311342 263.99511719 434.32006836 C262.82857941 437.46164961 262.74132714 439.94260229 262.734375 443.2890625 C262.73050781 445.07183594 262.73050781 445.07183594 262.7265625 446.890625 C262.73429687 448.12296875 262.74203125 449.3553125 262.75 450.625 C262.74226563 451.86507813 262.73453125 453.10515625 262.7265625 454.3828125 C262.72914063 455.56875 262.73171875 456.7546875 262.734375 457.9765625 C262.73775879 459.60198975 262.73775879 459.60198975 262.74121094 461.26025391 C262.80209319 464.21663665 262.80209319 464.21663665 265 467 C265.22781424 468.9852384 265.45477785 470.97059232 265.671875 472.95703125 C266.81840946 480.0955732 272.77534616 487.18374228 278 492 C280.09989652 493.17574711 280.09989652 493.17574711 282 494 C282 494.66 282 495.32 282 496 C282.804375 496.144375 283.60875 496.28875 284.4375 496.4375 C287 497 287 497 288 498 C291.07451355 498.27858031 294.1643663 498.23182248 297.25 498.25 C298.53970703 498.2809375 298.53970703 498.2809375 299.85546875 498.3125 C306.50557646 498.3534868 309.75508519 497.08829285 314.6875 492.5 C317.09321179 490.03112362 317.09321179 490.03112362 319 487 C319.66 487 320.32 487 321 487 C321.268125 486.2575 321.53625 485.515 321.8125 484.75 C322.95297649 482.10889655 324.28677072 480.28430571 326 478 C326.71247732 476.3523962 327.37400383 474.68236471 328 473 C330.77697842 466.22302158 330.77697842 466.22302158 332 465 C333.8537574 456.09942508 334.09043575 447.97792099 333 439 C332.78652249 436.12541486 332.58001831 433.25047454 332.37890625 430.375 C331.98039058 427.87708733 331.18297597 426.21695114 330 424 C329.50977655 422.07178776 329.02218837 420.14275025 328.5625 418.20703125 C326.89032291 411.64605866 324.3966903 405.32269726 322 399 C318.06996063 388.61129127 318.06996063 388.61129127 316.8125 383.375 C316.35394417 380.17995588 316.35394417 380.17995588 315 379 C314.71351121 376.28972509 314.55164579 373.57910392 314.37890625 370.859375 C314.13236197 368.01786844 314.13236197 368.01786844 312.99249268 365.63768005 C311.94952581 362.86585819 311.74666805 360.88391281 311.74121094 357.93774414 C311.73490662 356.95645035 311.72860229 355.97515656 311.72210693 354.96412659 C311.72817963 353.39053627 311.72817963 353.39053627 311.734375 351.78515625 C311.73246155 350.69665878 311.7305481 349.60816132 311.72857666 348.48667908 C311.72721745 346.18781299 311.73089543 343.88893917 311.73925781 341.59008789 C311.74995048 338.07876253 311.73935864 334.56794999 311.7265625 331.05664062 C311.72788434 328.82031137 311.73044725 326.58398244 311.734375 324.34765625 C311.73032654 323.30062027 311.72627808 322.25358429 311.72210693 321.17481995 C311.75513766 316.01693464 312.03812028 311.847025 314 307 C314.3435115 303.93181778 314.49937356 300.88730962 314.65625 297.8046875 C314.9982423 295.01434122 315.71880587 293.45271405 317 291 C317.4123819 288.71116951 317.4123819 288.71116951 317.5625 286.375 C317.90277778 282.19444444 317.90277778 282.19444444 319 280 C319.66 280 320.32 280 321 280 C320.938125 278.081875 320.938125 278.081875 320.875 276.125 C320.8046875 273.9453125 320.8046875 273.9453125 321 272 C321.66 271.34 322.32 270.68 323 270 C323.67292501 268.03309626 323.67292501 268.03309626 324.125 265.875 C324.41375 264.59625 324.7025 263.3175 325 262 C325.66 262 326.32 262 327 262 C326.9071875 260.9171875 326.9071875 260.9171875 326.8125 259.8125 C327.04155435 256.37668478 328.19145481 254.92181443 330 252 C331.18625651 249.69488791 332.35390932 247.38721232 333.5 245.0625 C333.79519531 244.46759766 334.09039062 243.87269531 334.39453125 243.25976562 C335.26416979 241.50708003 336.13210213 239.75354819 337 238 C337.99909163 235.99954607 338.99877919 233.99938913 340 232 C340.66 232 341.32 232 342 232 C342.28875 231.2575 342.5775 230.515 342.875 229.75 C344.51889616 225.73158716 345.94280045 223.05719955 349 220 C349.680625 218.948125 350.36125 217.89625 351.0625 216.8125 C351.701875 215.884375 352.34125 214.95625 353 214 C353.66 214 354.32 214 355 214 C355.309375 213.38125 355.61875 212.7625 355.9375 212.125 C356.625 210.75 357.3125 209.375 358 208 C358.66 208 359.32 208 360 208 C360.22558594 207.44957031 360.45117188 206.89914062 360.68359375 206.33203125 C364.95471168 198.7656888 373.3779358 192.39221398 380.3203125 187.33984375 C382.13119479 186.08789936 382.13119479 186.08789936 383 184 C385.31737141 182.61849012 387.6345201 181.29253016 390 180 C393.66460779 178.13335343 393.66460779 178.13335343 396 175 C397.66666667 174.33333333 399.33333333 173.66666667 401 173 C402.485 172.01 402.485 172.01 404 171 C406.69811751 169.20125499 408.97909564 168.10520891 412 167 C413.093125 166.525625 414.18625 166.05125 415.3125 165.5625 C417.97156468 164.41121266 420.65462428 163.37263331 423.375 162.375 C426.76347036 161.37331787 426.76347036 161.37331787 428 160 C430.0279979 159.7746669 432.05674874 159.55232815 434.08984375 159.37890625 C436.2328948 159.13777773 436.2328948 159.13777773 438 157 C440.49609375 156.65625 440.49609375 156.65625 443.4375 156.5 C447.29699189 156.29443452 448.70436551 156.19708966 452 154 C454.96831978 153.79644173 457.84483306 153.70947072 460.81420898 153.71289062 C461.71530396 153.70605759 462.61639893 153.69922455 463.5447998 153.69218445 C465.50255777 153.67858883 467.46035133 153.66954045 469.41814995 153.66447449 C472.51547042 153.65619822 475.61249424 153.63570505 478.70973206 153.61193848 C485.28561081 153.56366929 491.86151908 153.5307602 498.4375 153.5 C506.05322077 153.46435549 513.66879677 153.42246204 521.28437996 153.36405945 C524.33775357 153.34396937 527.39101677 153.33566676 530.44444275 153.32775879 C532.31509809 153.31478722 534.18574974 153.30126703 536.05639648 153.28710938 C537.33218315 153.28858223 537.33218315 153.28858223 538.63374329 153.29008484 C539.41742279 153.28181168 540.20110229 153.27353851 541.00852966 153.26501465 C541.68676002 153.26208153 542.36499037 153.25914841 543.06377316 153.2561264 C545.36292471 152.95199188 546.9632806 152.08212942 549 151 C551.2966257 150.64973473 553.56195205 150.50003696 555.87890625 150.34375 C558.29520543 150.10252039 558.29520543 150.10252039 561 148 C564.07975027 146.90497768 567.1834526 145.94461808 570.3125 145 C573.13554983 144.29749888 573.13554983 144.29749888 574 142 C575.671875 141.10546875 575.671875 141.10546875 577.75 140.1875 C583.98589214 137.17515282 587.63981608 132.25458063 592 127 C592.9590625 126.1028125 592.9590625 126.1028125 593.9375 125.1875 C600.43673687 118.29436999 604.51325126 110.05887041 607 101 C607.33 100.67 607.66 100.34 608 100 C608.37322245 97.69360186 608.69891805 95.37941973 609 93.0625 C609.89133425 86.2173315 609.89133425 86.2173315 611 84 C611.46076708 77.5385454 610.81883601 72.20544049 609 66 C608.70078761 62.63078654 608.5008994 59.26933703 608.34375 55.890625 C608.19815997 52.80696132 608.19815997 52.80696132 606 50 C605.65625 48.02734375 605.65625 48.02734375 605.5 45.9375 C605.40838115 42.00011598 605.40838115 42.00011598 603 40 C602.73008094 37.31160615 602.91262643 34.70858064 603 32 C602.01 31.67 601.02 31.34 600 31 C599.814375 29.329375 599.814375 29.329375 599.625 27.625 C599.3534187 23.96896323 599.3534187 23.96896323 597 22 C596.40234375 20.08984375 596.40234375 20.08984375 595.9375 17.9375 C595.47637504 15.1992487 595.47637504 15.1992487 594 13 C593.95936168 11.33382885 593.957279 9.66611905 594 8 C593.34 8 592.68 8 592 8 C590.64560332 5.29120665 590.93498549 2.99066732 591 0 C593.12438339 -0.08078641 595.2496323 -0.13909141 597.375 -0.1875 C598.55835938 -0.22230469 599.74171875 -0.25710937 600.9609375 -0.29296875 C601.96382812 -0.19628906 602.96671875 -0.09960938 604 0 C604.66 0.99 605.32 1.98 606 3 C607.64034193 3.72904086 609.31301918 4.38655243 611 5 C613 6 615 7 617 8 C618.3921875 8.5259375 618.3921875 8.5259375 619.8125 9.0625 C622 10 622 10 623 12 C624.62321655 12.91305931 626.24769234 13.82396252 627.87890625 14.72265625 C631.83049384 17.1023416 635.60542467 19.87483541 639 23 C639 23.66 639 24.32 639 25 C639.99 25.33 640.98 25.66 642 26 C642 26.66 642 27.32 642 28 C642.99 28.33 643.98 28.66 645 29 C645 29.66 645 30.32 645 31 C645.99 31.33 646.98 31.66 648 32 C652 37.37142857 652 37.37142857 652 40 C652.66 40 653.32 40 654 40 C658 46.75 658 46.75 658 49 C658.66 49 659.32 49 660 49 C660.33 50.98 660.66 52.96 661 55 C661.66 55 662.32 55 663 55 C663.71171965 57.13515896 664.42312074 59.27041574 665.1328125 61.40625 C665.70467629 63.11668945 666.28267077 64.82509306 666.8671875 66.53125 C667.13789062 67.3253125 667.40859375 68.119375 667.6875 68.9375 C667.93886719 69.66839844 668.19023438 70.39929688 668.44921875 71.15234375 C669 73 669 73 669 75 C669.66 75 670.32 75 671 75 C671 92.16 671 109.32 671 127 C670.34 127 669.68 127 669 127 C668.87882813 127.83144531 668.75765625 128.66289062 668.6328125 129.51953125 C668.46523438 130.60621094 668.29765625 131.69289063 668.125 132.8125 C667.96257813 133.89144531 667.80015625 134.97039062 667.6328125 136.08203125 C667 139 667 139 665 142 C664.29187186 144.32108669 663.61975848 146.65377147 663 149 C662.34 149 661.68 149 661 149 C661.06058594 149.70769531 661.12117187 150.41539062 661.18359375 151.14453125 C660.95760259 154.65941503 659.82183654 156.65316192 658.0625 159.6875 C657.51722656 160.64011719 656.97195313 161.59273437 656.41015625 162.57421875 C655.71212891 163.77498047 655.71212891 163.77498047 655 165 C654.67 165.66 654.34 166.32 654 167 C653.34 167 652.68 167 652 167 C651.896875 167.7425 651.79375 168.485 651.6875 169.25 C650.95066203 172.1973519 650.05200858 173.78383074 648 176 C647.34 176 646.68 176 646 176 C645.731875 176.7425 645.46375 177.485 645.1875 178.25 C644.04723249 180.89061949 642.90619694 182.85552844 641 185 C640.34 185 639.68 185 639 185 C638.7525 185.556875 638.505 186.11375 638.25 186.6875 C635.31916133 192.10955154 630.98885533 196.42424409 626 200 C625.34 200 624.68 200 624 200 C623.67 200.99 623.34 201.98 623 203 C620.41927097 205.32265612 619.54823932 206 616 206 C615.67 206.99 615.34 207.98 615 209 C614.01 209.33 613.02 209.66 612 210 C611.67 210.66 611.34 211.32 611 212 C609.33333333 212.66666667 607.66666667 213.33333333 606 214 C604.515 214.99 604.515 214.99 603 216 C600.30188249 217.79874501 598.02090436 218.89479109 595 220 C593.906875 220.474375 592.81375 220.94875 591.6875 221.4375 C589.04669425 222.57837441 586.38423895 223.62349369 583.6875 224.625 C580.23748009 225.83687115 580.23748009 225.83687115 578 227 C575.47278622 227.27309514 572.94588875 227.44557177 570.41015625 227.62109375 C567.74469973 227.86777079 567.74469973 227.86777079 565 230 C563.05810547 230.28710938 563.05810547 230.28710938 560.8671875 230.34375 C560.06023438 230.37339844 559.25328125 230.40304687 558.421875 230.43359375 C557.58140625 230.45550781 556.7409375 230.47742188 555.875 230.5 C554.22633248 230.54420717 552.57785653 230.59626916 550.9296875 230.65625 C550.19991699 230.67494141 549.47014648 230.69363281 548.71826172 230.71289062 C546.35071076 230.96295708 544.29268714 231.41660876 541.99487305 232 C536.0709558 233.36082777 530.20633426 233.31605105 524.15234375 233.34375 C522.94107315 233.3583728 521.72980255 233.37299561 520.48182678 233.38806152 C515.33295869 233.44994392 510.18397547 233.48986288 505.03491211 233.53173828 C501.26143192 233.56558543 497.48819744 233.61066099 493.71484375 233.65625 C492.55943588 233.6615271 491.40402802 233.6668042 490.21360779 233.67224121 C484.10316032 233.74733674 478.86622592 234.30657119 473 236 C470.68652344 236.28710938 470.68652344 236.28710938 468.859375 236.34375 C468.18132813 236.37339844 467.50328125 236.40304687 466.8046875 236.43359375 C465.41928705 236.47836905 464.03386984 236.52262865 462.6484375 236.56640625 C458.88396147 236.73227397 456.27948396 237.18279677 453 239 C450.67077506 239.34978122 448.37266137 239.50015539 446.0234375 239.65625 C443.77713524 239.83707192 443.77713524 239.83707192 442 242 C439.67190457 242.68473395 437.33762223 243.34853151 435 244 C431.244822 245.44936695 428.09356775 246.93702171 424.75 249.1875 C422 251 422 251 419 251 C418.67 251.99 418.34 252.98 418 254 C417.01 254 416.02 254 415 254 C414.67 254.99 414.34 255.98 414 257 C412.9171875 257.8353125 412.9171875 257.8353125 411.8125 258.6875 C407.73828619 262.03740913 404.36847315 266.26305371 402 271 C401.34 271 400.68 271 400 271 C399.67 272.32 399.34 273.64 399 275 C398.34 275 397.68 275 397 275 C396.67 276.98 396.34 278.96 396 281 C395.34 281 394.68 281 394 281 C393.67 282.98 393.34 284.96 393 287 C392.34 287 391.68 287 391 287 C390.855625 288.299375 390.71125 289.59875 390.5625 290.9375 C390.125 294.875 390.125 294.875 389 296 C388.855625 297.134375 388.71125 298.26875 388.5625 299.4375 C388 303 388 303 386 305 C385.61071736 307.49510009 385.61071736 307.49510009 385.5 310.3125 C385.33859394 313.270266 385.20177833 315.54565561 383.99511719 318.26269531 C382.80866764 321.52630483 382.74117729 324.15168496 382.734375 327.62109375 C382.73050781 329.51891602 382.73050781 329.51891602 382.7265625 331.45507812 C382.73429687 332.76927734 382.74203125 334.08347656 382.75 335.4375 C382.74226563 336.74783203 382.73453125 338.05816406 382.7265625 339.40820312 C382.72914063 340.67470703 382.73171875 341.94121094 382.734375 343.24609375 C382.73775879 344.97363892 382.73775879 344.97363892 382.74121094 346.73608398 C383.00989774 350.1248329 383.84015465 352.81887897 385 356 C385.33852336 358.80820512 385.4980838 361.59079578 385.65625 364.4140625 C386.00846127 367.06365184 386.79199362 368.65005009 388 371 C388.35076406 373.26402255 388.49976428 375.49655852 388.65625 377.78125 C389.03111796 380.2008523 389.8995352 381.82916123 391 384 C391.34375 386.03515625 391.34375 386.03515625 391.5 388.0625 C391.70875489 392.0457203 391.70875489 392.0457203 394 395 C394.25198015 396.98434369 394.50254179 398.97047977 394.65625 400.96484375 C395.04745606 403.28096147 395.95095099 404.90586065 397 407 C397.40445633 408.69713048 397.75740258 410.40722459 398.0625 412.125 C398.68273802 415.67791258 398.68273802 415.67791258 400 419 C400.27826763 421.95052022 400.44641827 424.90104126 400.62109375 427.859375 C400.87674678 430.98878689 400.87674678 430.98878689 402.00708008 433.74462891 C403.11976007 437.39264341 403.25870452 440.41683688 403.265625 444.2265625 C403.26753845 444.89666351 403.2694519 445.56676453 403.27142334 446.25717163 C403.27277624 447.66396463 403.26914273 449.0707705 403.26074219 450.47753906 C403.24999532 452.62593594 403.26068461 454.77350321 403.2734375 456.921875 C403.2721164 458.29427267 403.26955505 459.66666982 403.265625 461.0390625 C403.26336914 462.27865723 403.26111328 463.51825195 403.25878906 464.79541016 C403.01165419 467.855686 402.5179143 469.40522161 401 472 C400.65591182 473.88702326 400.36873049 475.78490994 400.125 477.6875 C399.37549966 482.57709745 398.11733912 486.52779165 395.953125 490.953125 C394.58410484 493.89315191 393.80101187 496.86270353 393 500 C392.34 500 391.68 500 391 500 C390.67 501.98 390.34 503.96 390 506 C389.34 506 388.68 506 388 506 C387.87044922 507.06734375 387.87044922 507.06734375 387.73828125 508.15625 C386.84265163 511.60608263 385.33410824 513.66440618 383.1875 516.5 C382.50042969 517.4178125 381.81335938 518.335625 381.10546875 519.28125 C374.42950108 527.90179452 374.42950108 527.90179452 372 530 C371.34 530 370.68 530 370 530 C369.67 530.99 369.34 531.98 369 533 C368.34 533 367.68 533 367 533 C366.7834375 533.54140625 366.566875 534.0828125 366.34375 534.640625 C364.53500003 537.81645344 362.08276201 540.20728081 359.5 542.75 C359.00113281 543.25660156 358.50226563 543.76320313 357.98828125 544.28515625 C354.25341139 548 354.25341139 548 352 548 C351.67 548.99 351.34 549.98 351 551 C350.34 551 349.68 551 349 551 C348.67 551.99 348.34 552.98 348 554 C346.3603279 555.36639342 344.68889872 556.6949419 343 558 C340.71830265 560.22737122 338.48514077 562.47892287 336.3125 564.8125 C335 566 335 566 333 566 C332.67 566.99 332.34 567.98 332 569 C331.34 569 330.68 569 330 569 C329.67 569.99 329.34 570.98 329 572 C326.40107347 574.13273491 323.73773318 576.10111015 321.01171875 578.06445312 C318.01989106 580.27595218 315.78279891 582.20135 313.68359375 585.2890625 C310.78186417 588.22035846 310.30276161 588.42401491 306.42578125 588.69140625 C304.72085406 588.67952062 303.01589792 588.63566781 301.3125 588.5625 C300.44560547 588.56056641 299.57871094 588.55863281 298.68554688 588.55664062 C293.98798532 588.457937 293.98798532 588.457937 292 588 C291.34 587.01 290.68 586.02 290 585 C287.95800024 583.66626503 287.95800024 583.66626503 285.625 582.5 C282.53187638 580.88619637 279.65641982 579.28039692 277 577 C277 576.34 277 575.68 277 575 C276.01 575 275.02 575 274 575 C272.8109042 573.87885253 271.63149221 572.7450773 270.51171875 571.5546875 C268.79421015 569.78836083 266.98327519 568.17995423 265.125 566.5625 C264.43792969 565.964375 263.75085938 565.36625 263.04296875 564.75 C261.76416237 563.65457886 260.47638634 562.56944829 259.17578125 561.5 C255.35924188 558.34385059 252.09541285 554.97814813 248.88671875 551.20703125 C246.78021262 548.74289882 244.61397097 546.34000314 242.4375 543.9375 C240.95732199 542.29257615 239.4780976 540.64679352 238 539 C237.3709375 538.30003906 236.741875 537.60007812 236.09375 536.87890625 C232 532.23481722 232 532.23481722 232 530 C231.01 529.67 230.02 529.34 229 529 C225 523.62857143 225 523.62857143 225 521 C224.34 521 223.68 521 223 521 C221.2734375 518.8828125 221.2734375 518.8828125 219.375 516.125 C218.42753906 514.76761719 218.42753906 514.76761719 217.4609375 513.3828125 C216 511 216 511 216 509 C215.34 509 214.68 509 214 509 C213.66226562 508.37351562 213.32453125 507.74703125 212.9765625 507.1015625 C212.53054688 506.28429687 212.08453125 505.46703125 211.625 504.625 C211.18414062 503.81289063 210.74328125 503.00078125 210.2890625 502.1640625 C209.0556107 499.89185698 209.0556107 499.89185698 207 498 C206.31246699 496.34183216 205.64438717 494.67540664 205 493 C204.67 492.67 204.34 492.34 204 492 C203.855625 490.906875 203.71125 489.81375 203.5625 488.6875 C203.24973275 485.20275437 203.24973275 485.20275437 201.99609375 483.19140625 C200.63420836 480.19525839 200.64316216 477.52841338 200.5 474.25 C200.19491683 468.57215898 200.19491683 468.57215898 198.9375 463.0625 C196.40070161 454.15509514 197.7553166 444.25549034 199.49609375 435.3203125 C200.25597354 430.31335264 200.41816224 425.28766885 200.57006836 420.22924805 C200.73457565 415.98141812 201.35679989 412.95395026 203 409 C203.36048956 405.42377966 203.50297379 401.86783899 203.65625 398.27734375 C203.98333094 395.15892431 204.60452475 393.7037333 206 391 C206.23867477 389.0282209 206.399942 387.04614989 206.5 385.0625 C206.65884698 381.92130089 206.81785511 379.45038171 208 376.52734375 C209.21749235 373.45032206 209.3458573 370.79865383 209.5 367.5 C209.77948212 361.51908256 209.77948212 361.51908256 211.00531006 358.63357544 C212.07738134 355.7951225 212.25346739 353.72868247 212.25878906 350.70654297 C212.26824554 349.16001541 212.26824554 349.16001541 212.27789307 347.58224487 C212.2738446 346.48002594 212.26979614 345.37780701 212.265625 344.2421875 C212.26753845 343.10218292 212.2694519 341.96217834 212.27142334 340.78762817 C212.27278248 338.38201679 212.26910501 335.97639801 212.26074219 333.57080078 C212.25001939 329.88166936 212.26065708 326.19302274 212.2734375 322.50390625 C212.27211624 320.16666559 212.26955456 317.82942523 212.265625 315.4921875 C212.27169769 313.83278641 212.27169769 313.83278641 212.27789307 312.13986206 C212.27158875 311.11514801 212.26528442 310.09043396 212.25878906 309.03466797 C212.25719788 308.13263641 212.25560669 307.23060486 212.25396729 306.30123901 C212.14812274 303.72376315 212.14812274 303.72376315 210 301 C209.74239721 298.30547479 209.91099947 295.71451625 210 293 C209.34 293 208.68 293 208 293 C207.67 290.69 207.34 288.38 207 286 C206.34 286 205.68 286 205 286 C204.566875 284.8553125 204.566875 284.8553125 204.125 283.6875 C203.03730987 280.84970692 203.03730987 280.84970692 201 278 C201 277.01 201 276.02 201 275 C200.34 275 199.68 275 199 275 C197.4140625 273.171875 197.4140625 273.171875 195.625 270.75 C193.77366797 268.2543718 192.00076123 266.00074253 189.7734375 263.828125 C188 262 188 262 188 260 C187.401875 259.71125 186.80375 259.4225 186.1875 259.125 C184 258 184 258 181 256 C181 255.34 181 254.68 181 254 C180.01 254 179.02 254 178 254 C177.67 253.34 177.34 252.68 177 252 C175.51132724 251.07133836 173.98445294 250.20294664 172.4375 249.375 C171.19806641 248.70597656 171.19806641 248.70597656 169.93359375 248.0234375 C169.29550781 247.68570313 168.65742188 247.34796875 168 247 C168 246.34 168 245.68 168 245 C167.319375 244.896875 166.63875 244.79375 165.9375 244.6875 C163.08564623 244.02004486 160.57765105 243.02410069 157.91015625 241.828125 C155.83989444 240.93058818 153.74451482 240.1484902 151.625 239.375 C148 238 148 238 147 237 C144.77854367 236.71612221 142.55682352 236.55234827 140.32421875 236.37890625 C138 236 138 236 136.12841797 235 C133.79432755 233.90336839 132.18501348 233.70710163 129.62109375 233.62109375 C128.78126953 233.58693359 127.94144531 233.55277344 127.07617188 233.51757812 C126.20541016 233.49115234 125.33464844 233.46472656 124.4375 233.4375 C122.7277762 233.3761119 121.01813795 233.31229478 119.30859375 233.24609375 C118.42631104 233.21241699 117.54402832 233.17874023 116.63500977 233.14404297 C114.13185005 233.00720759 111.67022738 232.7534125 109.1796875 232.47265625 C100.05430484 231.59616151 90.8438835 231.93452488 81.6875 232 C77.92057563 232.02668648 74.15370238 232.04660957 70.38671875 232.0625 C69.53349533 232.07079834 68.68027191 232.07909668 67.80119324 232.08764648 C63.39920301 232.10571147 59.34200827 231.81400513 55 231 C53.3222074 230.88558311 51.6419164 230.80278531 49.9609375 230.75390625 C48.59582031 230.70459961 48.59582031 230.70459961 47.203125 230.65429688 C45.31002615 230.59284961 43.41678692 230.53559128 41.5234375 230.48242188 C40.6159375 230.44826172 39.7084375 230.41410156 38.7734375 230.37890625 C37.95278809 230.3538501 37.13213867 230.32879395 36.28662109 230.30297852 C33.80856186 229.97463434 32.18310645 229.18083061 30 228 C27.67077506 227.65021878 25.37266137 227.49984461 23.0234375 227.34375 C21 227 21 227 19 225 C17.845 224.835 16.69 224.67 15.5 224.5 C12 224 12 224 10 222 C8.34302621 221.30959426 6.6744239 220.6469365 5 220 C-5.93327834 214.91475426 -17.91436008 208.06343824 -26 199 C-26 198.34 -26 197.68 -26 197 C-26.99 196.67 -27.98 196.34 -29 196 C-29 195.34 -29 194.68 -29 194 C-29.99 193.67 -30.98 193.34 -32 193 C-32 192.34 -32 191.68 -32 191 C-32.99 190.67 -33.98 190.34 -35 190 C-39 184.62857143 -39 184.62857143 -39 182 C-39.66 182 -40.32 182 -41 182 C-45 176.70588235 -45 176.70588235 -45 173 C-45.66 173 -46.32 173 -47 173 C-47.55429688 171.87980469 -48.10859375 170.75960937 -48.6796875 169.60546875 C-49.41135191 168.13275962 -50.14312861 166.66010628 -50.875 165.1875 C-51.23980469 164.44951172 -51.60460937 163.71152344 -51.98046875 162.95117188 C-52.33496094 162.23896484 -52.68945312 161.52675781 -53.0546875 160.79296875 C-53.37937012 160.1383667 -53.70405273 159.48376465 -54.03857422 158.80932617 C-55.09255672 156.75347202 -55.09255672 156.75347202 -57 154 C-59.12296404 148.75861509 -60.33878969 143.62028766 -61 138 C-61.30903983 136.66082739 -61.62942911 135.32346746 -62 134 C-62.66 134 -63.32 134 -64 134 C-64 116.18 -64 98.36 -64 80 C-63.34 80 -62.68 80 -62 80 C-61.01 74.06 -61.01 74.06 -60 68 C-58.515 67.505 -58.515 67.505 -57 67 C-57.04125 65.88625 -57.0825 64.7725 -57.125 63.625 C-57 60 -57 60 -55 58 C-54.28591666 56.01643517 -53.61382258 54.01684563 -53 52 C-52.34 52 -51.68 52 -51 52 C-50.938125 51.34 -50.87625 50.68 -50.8125 50 C-48.75499612 42.4030626 -43.07348971 36.44631231 -38.1171875 30.53125 C-36.57245793 28.68441464 -35.08185534 26.79191492 -33.625 24.875 C-29.55246279 20.41460211 -24.95810466 16.45378808 -20 13 C-19.01 13 -18.02 13 -17 13 C-16.67 12.01 -16.34 11.02 -16 10 C-14.14453125 8.71875 -14.14453125 8.71875 -11.8125 7.5 C-11.00425781 7.07074219 -10.19601563 6.64148438 -9.36328125 6.19921875 C-7.42062103 5.2134391 -5.46228901 4.25860363 -3.5 3.3125 C-0.8804896 2.24768247 -0.8804896 2.24768247 0 0 Z " fill="#F9F8F2" transform="translate(148,156)"/>
<path d="M0 0 C1.15113281 -0.01224609 2.30226562 -0.02449219 3.48828125 -0.03710938 C9.33022011 -0.04710129 14.59717587 0.25666142 20.25244141 1.7175293 C24.80422746 2.72537243 29.50852782 2.62554061 34.15234375 2.75390625 C38.02840336 2.90475121 40.07919518 2.99029679 43.375 5.1875 C45.61103435 5.75154679 45.61103435 5.75154679 48.0625 6.125 C52.78060738 6.99102558 56.93744359 8.37960665 61.375 10.1875 C61.375 10.8475 61.375 11.5075 61.375 12.1875 C62.055625 12.084375 62.73625 11.98125 63.4375 11.875 C67.13730098 12.26859585 68.8678187 13.72591485 71.7265625 15.99609375 C73.48056907 17.38903189 73.48056907 17.38903189 76.375 18.1875 C78.06373879 19.83179829 79.72805515 21.50134218 81.375 23.1875 C82.24125 23.868125 83.1075 24.54875 84 25.25 C86.2530326 27.08800028 87.82429607 28.73902011 89.375 31.1875 C89.375 31.8475 89.375 32.5075 89.375 33.1875 C90.86 33.6825 90.86 33.6825 92.375 34.1875 C92.87 36.6625 92.87 36.6625 93.375 39.1875 C94.035 39.1875 94.695 39.1875 95.375 39.1875 C95.849375 40.156875 96.32375 41.12625 96.8125 42.125 C98.07693947 44.99227437 98.07693947 44.99227437 99.375 46.1875 C99.41563832 47.85367115 99.417721 49.52138095 99.375 51.1875 C100.035 51.1875 100.695 51.1875 101.375 51.1875 C101.57996094 51.95835937 101.78492188 52.72921875 101.99609375 53.5234375 C102.26550781 54.52632813 102.53492188 55.52921875 102.8125 56.5625 C103.07933594 57.56023437 103.34617187 58.55796875 103.62109375 59.5859375 C104.27684356 62.14167701 104.27684356 62.14167701 105.375 64.1875 C105.45900529 65.78197464 105.48227467 67.37990545 105.47265625 68.9765625 C105.46943359 69.91757812 105.46621094 70.85859375 105.46289062 71.828125 C105.45451172 72.81296875 105.44613281 73.7978125 105.4375 74.8125 C105.43298828 75.80507813 105.42847656 76.79765625 105.42382812 77.8203125 C105.41202145 80.2761016 105.395554 82.73177104 105.375 85.1875 C90.69148145 86.33115675 76.04871236 87.38384062 61.3125 87.375 C60.2800415 87.37564453 59.24758301 87.37628906 58.18383789 87.37695312 C53.74094388 87.34411191 49.7307446 87.0893502 45.375 86.1875 C41.91435713 85.9701316 38.45896354 85.79642031 34.99414062 85.66992188 C29.59103626 85.40353626 29.59103626 85.40353626 27.375 83.1875 C25.46755184 82.80300947 25.46755184 82.80300947 23.375 82.6875 C19.59722222 82.40972222 19.59722222 82.40972222 17.375 80.1875 C16.529375 80.0225 15.68375 79.8575 14.8125 79.6875 C14.008125 79.5225 13.20375 79.3575 12.375 79.1875 C12.045 78.5275 11.715 77.8675 11.375 77.1875 C9.71675803 76.50014581 8.04849192 75.83684351 6.375 75.1875 C4.74339651 74.23292117 3.13775759 73.23244699 1.5625 72.1875 C0.77230469 71.671875 -0.01789063 71.15625 -0.83203125 70.625 C-1.42371094 70.150625 -2.01539063 69.67625 -2.625 69.1875 C-2.625 68.5275 -2.625 67.8675 -2.625 67.1875 C-3.615 67.1875 -4.605 67.1875 -5.625 67.1875 C-6.99139342 65.5478279 -8.3199419 63.87639872 -9.625 62.1875 C-10.388125 61.630625 -11.15125 61.07375 -11.9375 60.5 C-15.968444 57.0315133 -18.88032887 52.72767646 -21.625 48.1875 C-21.625 47.5275 -21.625 46.8675 -21.625 46.1875 C-22.285 46.1875 -22.945 46.1875 -23.625 46.1875 C-27.625 40.89338235 -27.625 40.89338235 -27.625 37.1875 C-28.285 37.1875 -28.945 37.1875 -29.625 37.1875 C-29.955 35.2075 -30.285 33.2275 -30.625 31.1875 C-31.615 30.8575 -32.605 30.5275 -33.625 30.1875 C-33.74138036 26.93780231 -33.81230581 23.6886417 -33.875 20.4375 C-33.90851563 19.51710938 -33.94203125 18.59671875 -33.9765625 17.6484375 C-34.07586199 10.79677295 -34.07586199 10.79677295 -31.74609375 7.6484375 C-31.04613281 7.16632813 -30.34617188 6.68421875 -29.625 6.1875 C-28.903125 5.65125 -28.18125 5.115 -27.4375 4.5625 C-24.22816557 2.99349205 -21.20222601 2.29638014 -17.7109375 1.6171875 C-11.60689272 0.3598 -6.30923158 0.00346281 0 0 Z " fill="#F9F8F2" transform="translate(229.625,420.8125)"/>
<path d="M0 0 C1.7644043 -0.01160156 1.7644043 -0.01160156 3.56445312 -0.0234375 C9.50300219 -0.01015958 14.96164012 0.29227699 20.71899414 1.77783203 C22.98887909 2.35920635 25.23026603 2.61675893 27.5625 2.8125 C31.45623814 3.14373814 31.45623814 3.14373814 32.5625 4.25 C32.7704817 7.78568888 32.77384288 10.6300609 31.625 14 C30.33673183 17.94058499 30.13436111 21.6386105 29.90625 25.76171875 C29.5625 28.25 29.5625 28.25 27.5625 31.25 C27.3975 32.425625 27.2325 33.60125 27.0625 34.8125 C26.5625 38.25 26.5625 38.25 24.5625 40.25 C23.84841666 42.23356483 23.17632258 44.23315437 22.5625 46.25 C21.9025 46.25 21.2425 46.25 20.5625 46.25 C20.459375 46.9925 20.35625 47.735 20.25 48.5 C19.51316203 51.4473519 18.61450858 53.03383074 16.5625 55.25 C15.9025 55.25 15.2425 55.25 14.5625 55.25 C14.2840625 56.2709375 14.2840625 56.2709375 14 57.3125 C9.24757098 67.02398539 -2.6205334 74.5102032 -12.4375 78.25 C-16.74990843 79.766457 -16.74990843 79.766457 -20.4375 82.25 C-22.43291896 82.47528924 -24.42909864 82.69761095 -26.4296875 82.87109375 C-28.74465407 83.17253842 -28.74465407 83.17253842 -31.4375 85.25 C-33.53383778 85.4962987 -35.64148583 85.65272138 -37.75 85.75 C-41.12981835 85.90701827 -43.90526503 86.0477901 -47.07666016 87.25268555 C-51.31375219 88.51002399 -55.14079355 88.55563542 -59.53515625 88.55078125 C-60.84123085 88.55720894 -60.84123085 88.55720894 -62.1736908 88.56376648 C-64.01349014 88.56949295 -65.85331212 88.57002248 -67.69311523 88.56567383 C-70.46704272 88.56253727 -73.23987781 88.58591217 -76.01367188 88.61132812 C-85.92651206 88.64506004 -94.88802537 88.17357945 -104.4375 85.25 C-104.3274083 81.83268208 -104.19682939 78.41644426 -104.0625 75 C-104.0315625 74.03191406 -104.000625 73.06382812 -103.96875 72.06640625 C-103.93007813 71.13183594 -103.89140625 70.19726562 -103.8515625 69.234375 C-103.8201416 68.37553711 -103.7887207 67.51669922 -103.75634766 66.63183594 C-103.41776174 64.10255247 -102.66203151 62.46784127 -101.4375 60.25 C-101.01598115 58.67841122 -100.6406166 57.09370918 -100.3125 55.5 C-100.06113281 54.30117188 -100.06113281 54.30117188 -99.8046875 53.078125 C-99.68351563 52.47484375 -99.56234375 51.8715625 -99.4375 51.25 C-98.7775 51.25 -98.1175 51.25 -97.4375 51.25 C-97.499375 50.528125 -97.56125 49.80625 -97.625 49.0625 C-97.40060037 45.69650559 -96.30582649 44.01512321 -94.4375 41.25 C-94.1075 40.59 -93.7775 39.93 -93.4375 39.25 C-92.7775 39.25 -92.1175 39.25 -91.4375 39.25 C-91.169375 38.5075 -90.90125 37.765 -90.625 37 C-89.48473249 34.35938051 -88.34369694 32.39447156 -86.4375 30.25 C-85.7775 30.25 -85.1175 30.25 -84.4375 30.25 C-84.1075 29.26 -83.7775 28.27 -83.4375 27.25 C-82.7775 27.25 -82.1175 27.25 -81.4375 27.25 C-81.1075 26.26 -80.7775 25.27 -80.4375 24.25 C-78.6011593 21.90356467 -76.43638112 20.6252815 -73.875 19.1875 C-70.49186646 17.48356577 -70.49186646 17.48356577 -68.4375 15.25 C-67.756875 15.085 -67.07625 14.92 -66.375 14.75 C-65.735625 14.585 -65.09625 14.42 -64.4375 14.25 C-64.1075 13.59 -63.7775 12.93 -63.4375 12.25 C-61.45765519 11.52566653 -59.45166562 10.87256028 -57.4375 10.25 C-52.57000763 8.84159976 -52.57000763 8.84159976 -48.4375 6.25 C-46.15065662 5.9680604 -43.86386727 5.80222995 -41.56640625 5.62890625 C-39.22822597 5.42223364 -39.22822597 5.42223364 -37.4375 3.25 C-34.87242491 2.99173157 -32.38365114 2.82932771 -29.8125 2.75 C-25.58692518 2.61522557 -21.8552557 2.36518185 -17.75390625 1.234375 C-11.93662523 -0.34125754 -5.98274073 -0.03920966 0 0 Z " fill="#F9F8F2" transform="translate(656.4375,420.75)"/>
</svg>
